<svg version="1.1" xmlns="http://www.w3.org/2000/svg" viewBox="0 0 447 559" preserveAspectRatio="xMidYMid meet">
<path d="M0 0 C2.0639477 1.20962506 3.71169854 2.48822878 5.45703125 4.12109375 C6.00746094 4.60578125 6.55789063 5.09046875 7.125 5.58984375 C13.22246967 11.73247986 15.6262623 20.31729829 15.89453125 28.80859375 C15.27542471 44.10651659 11.3271837 57.97580426 4.20703125 71.49609375 C-0.07753419 79.82526016 0.14821864 88.76372813 0.20703125 97.93359375 C0.19929687 99.12791016 0.1915625 100.32222656 0.18359375 101.55273438 C0.20664327 112.13822749 0.81703113 122.08703238 5.83203125 131.55859375 C6.70988281 133.25822266 6.70988281 133.25822266 7.60546875 134.9921875 C10.12760641 139.25428089 12.72886296 142.91432972 16.83203125 145.74609375 C17.37601563 146.13023437 17.92 146.514375 18.48046875 146.91015625 C28.6127623 153.11768787 39.70483162 154.30056264 51.33203125 154.99609375 C52.21125244 155.05748535 53.09047363 155.11887695 53.99633789 155.18212891 C61.6185261 155.53295602 67.40204683 154.01165809 73.45703125 149.12109375 C74.11703125 149.12109375 74.77703125 149.12109375 75.45703125 149.12109375 C75.78703125 148.13109375 76.11703125 147.14109375 76.45703125 146.12109375 C77.11703125 146.12109375 77.77703125 146.12109375 78.45703125 146.12109375 C78.71484375 145.5590625 78.97265625 144.99703125 79.23828125 144.41796875 C80.59872902 141.85404796 82.18492087 139.6688301 83.95703125 137.37109375 C84.56546875 136.571875 85.17390625 135.77265625 85.80078125 134.94921875 C86.34734375 134.3459375 86.89390625 133.74265625 87.45703125 133.12109375 C88.11703125 133.12109375 88.77703125 133.12109375 89.45703125 133.12109375 C89.72515625 132.53972656 89.99328125 131.95835937 90.26953125 131.359375 C94.54469006 123.30126316 102.80025804 116.00668482 111.45703125 113.12109375 C121.25848329 112.28254035 129.5125303 113.14399516 137.33203125 119.43359375 C138.03328125 120.32046875 138.73453125 121.20734375 139.45703125 122.12109375 C140.22015625 123.06984375 140.98328125 124.01859375 141.76953125 124.99609375 C144.82513679 130.64584603 144.36259777 137.94859253 143.45703125 144.12109375 C139.17351556 152.59655354 130.07182714 155.2419862 121.53613281 158.09863281 C117.2348359 159.46984713 112.92243415 160.80366438 108.60888672 162.13574219 C97.41884499 165.64761006 86.19633686 169.98623579 77.45703125 178.12109375 C77.12703125 178.78109375 76.79703125 179.44109375 76.45703125 180.12109375 C75.79703125 180.12109375 75.13703125 180.12109375 74.45703125 180.12109375 C74.03744141 181.22324219 74.03744141 181.22324219 73.609375 182.34765625 C72.56237713 184.86754942 71.35609756 187.12275171 70.01953125 189.49609375 C63.15734239 203.26119663 63.00892536 218.73732238 67.39453125 233.24609375 C68.06538545 235.21019159 68.7522278 237.16892117 69.45703125 239.12109375 C70.12717516 241.11993131 70.79482057 243.11961393 71.45703125 245.12109375 C72.11703125 245.12109375 72.77703125 245.12109375 73.45703125 245.12109375 C76.45703125 248.58263221 76.45703125 248.58263221 76.45703125 251.12109375 C77.00488281 251.38148438 77.55273438 251.641875 78.1171875 251.91015625 C80.80570008 253.30154005 83.32337369 254.89827806 85.89453125 256.49609375 C98.66324192 263.95611623 113.49933427 266.10754343 127.89453125 268.62109375 C130.74897904 269.11950987 133.6032875 269.61866009 136.45703125 270.12109375 C137.12976074 270.23952637 137.80249023 270.35795898 138.49560547 270.47998047 C148.58116672 272.28513003 158.85345388 274.24249284 167.45703125 280.12109375 C167.45703125 280.78109375 167.45703125 281.44109375 167.45703125 282.12109375 C168.44703125 282.45109375 169.43703125 282.78109375 170.45703125 283.12109375 C171.58984375 284.6796875 171.58984375 284.6796875 172.58203125 286.55859375 C172.91460937 287.17605469 173.2471875 287.79351562 173.58984375 288.4296875 C176.71422354 294.52363546 176.28557094 302.36481646 175.45703125 309.12109375 C174.23525875 312.5386392 172.7164742 315.28872063 170.45703125 318.12109375 C169.46703125 318.12109375 168.47703125 318.12109375 167.45703125 318.12109375 C167.45703125 318.78109375 167.45703125 319.44109375 167.45703125 320.12109375 C156.81457137 323.99107916 145.90864894 322.72682458 135.76953125 318.12109375 C129.0723235 314.63854572 123.3149389 309.82951105 117.45703125 305.12109375 C115.7516797 303.76317393 114.0437465 302.40848302 112.33203125 301.05859375 C111.64882813 300.51074219 110.965625 299.96289062 110.26171875 299.3984375 C108.376428 297.93313662 108.376428 297.93313662 105.45703125 297.12109375 C105.45703125 296.46109375 105.45703125 295.80109375 105.45703125 295.12109375 C104.60367187 294.85167969 103.7503125 294.58226562 102.87109375 294.3046875 C99.4194134 293.10805232 96.16042441 291.68710928 92.83203125 290.18359375 C86.48690294 287.41340971 80.25779969 285.42594259 73.45703125 284.12109375 C71.88888672 283.81365234 71.88888672 283.81365234 70.2890625 283.5 C61.90832956 282.12688556 53.56207286 281.85712636 45.08203125 281.74609375 C43.97649902 281.7200708 42.8709668 281.69404785 41.73193359 281.66723633 C35.47101586 281.65353732 30.82833149 282.28380709 25.27490234 285.25927734 C23.45703125 286.12109375 23.45703125 286.12109375 20.45703125 286.12109375 C20.12703125 287.11109375 19.79703125 288.10109375 19.45703125 289.12109375 C18.79703125 289.12109375 18.13703125 289.12109375 17.45703125 289.12109375 C17.45703125 289.78109375 17.45703125 290.44109375 17.45703125 291.12109375 C16.79703125 291.12109375 16.13703125 291.12109375 15.45703125 291.12109375 C14.03076639 294.63878736 12.68736513 298.17728234 11.39453125 301.74609375 C11.05292969 302.68710937 10.71132813 303.628125 10.359375 304.59765625 C8.45098966 309.93452607 8.09696641 314.55372171 7.83203125 320.18359375 C7.78046875 321.08787109 7.72890625 321.99214844 7.67578125 322.92382812 C6.94565237 337.94515607 9.91712382 348.78134134 19.08203125 360.80859375 C24.18865561 367.51599059 27.90744271 373.0119443 27.39453125 381.74609375 C26.70444421 386.20813381 24.9267377 389.3767001 22.45703125 393.12109375 C21.79703125 393.12109375 21.13703125 393.12109375 20.45703125 393.12109375 C20.12703125 394.11109375 19.79703125 395.10109375 19.45703125 396.12109375 C12.22928816 399.47877832 4.23932339 401.54601086 -3.54296875 399.12109375 C-8.19295888 396.6384719 -10.71856229 392.98617765 -12.54296875 388.12109375 C-15.10449368 378.91074484 -16.26608575 369.74046835 -17.19180298 360.26589966 C-19.78774603 330.13066774 -19.78774603 330.13066774 -35.41796875 305.12109375 C-42.15850503 299.79619997 -49.02128756 297.45273278 -57.54296875 297.12109375 C-58.33574219 297.08113281 -59.12851563 297.04117187 -59.9453125 297 C-73.67919422 296.63115957 -83.99953316 299.96332481 -94.0234375 309.38671875 C-104.04212297 320.25971074 -109.02715321 333.45897844 -113.60546875 347.28930664 C-115.57258422 353.23112236 -117.56053793 359.16572028 -119.56665039 365.09448242 C-120.09035562 366.64744428 -120.6108923 368.20147845 -121.12817383 369.7565918 C-126.26804976 385.19581873 -132.05680643 401.05381351 -144.54296875 412.12109375 C-145.20296875 412.12109375 -145.86296875 412.12109375 -146.54296875 412.12109375 C-146.54296875 412.78109375 -146.54296875 413.44109375 -146.54296875 414.12109375 C-155.04107901 420.42614329 -165.32634505 421.26202361 -175.56347656 420.42724609 C-181.77011597 419.46731444 -186.0039906 415.85244417 -190.04296875 411.30859375 C-195.22266214 400.30174529 -194.01291454 389.48236788 -190.54296875 378.12109375 C-187.18160519 370.02326335 -181.13716847 361.89567543 -174.54296875 356.12109375 C-173.88296875 356.12109375 -173.22296875 356.12109375 -172.54296875 356.12109375 C-172.54296875 355.46109375 -172.54296875 354.80109375 -172.54296875 354.12109375 C-170.20565051 352.20267151 -167.85808572 350.40076756 -165.41796875 348.62109375 C-164.69311279 348.08355469 -163.96825684 347.54601562 -163.22143555 346.9921875 C-159.78715243 344.45554796 -156.33094952 341.95727206 -152.8203125 339.52734375 C-137.01647555 328.58097271 -122.18496669 316.13275707 -117.86328125 296.41015625 C-116.61510171 287.49023903 -116.71659762 278.95360461 -121.54296875 271.12109375 C-127.04509849 263.93238153 -134.85871277 261.5495498 -143.54296875 260.12109375 C-157.38192637 259.58882615 -173.36212425 264.56207703 -185.41796875 271.12109375 C-196.42342157 276.85897941 -209.46579674 280.41295058 -221.79296875 277.609375 C-225.95375207 276.05804846 -229.04954857 273.74788674 -231.54296875 270.12109375 C-232.37410898 265.69510308 -232.588217 261.3223157 -230.62109375 257.1796875 C-224.6899827 249.49620273 -214.4408947 247.91737483 -205.41796875 246.62109375 C-204.54487061 246.4914624 -203.67177246 246.36183105 -202.7722168 246.22827148 C-197.47621958 245.46587181 -192.18720125 244.87119404 -186.85766602 244.40332031 C-173.38540903 243.22027501 -160.3962035 241.57624503 -148.64453125 234.390625 C-146.54296875 233.12109375 -146.54296875 233.12109375 -143.54296875 232.12109375 C-142.42038048 230.29349941 -142.42038048 230.29349941 -141.54296875 228.12109375 C-141.20136719 227.45851563 -140.85976562 226.7959375 -140.5078125 226.11328125 C-137.22713864 219.3523488 -135.21110841 212.39721569 -137.54296875 204.99609375 C-139.70818967 200.05133342 -143.64579971 194.56967827 -148.54296875 192.12109375 C-148.54296875 191.46109375 -148.54296875 190.80109375 -148.54296875 190.12109375 C-149.35701172 189.98380859 -149.35701172 189.98380859 -150.1875 189.84375 C-158.72924791 187.22314741 -167.51729618 179.60325666 -173.54296875 173.12109375 C-173.54296875 172.46109375 -173.54296875 171.80109375 -173.54296875 171.12109375 C-174.20296875 171.12109375 -174.86296875 171.12109375 -175.54296875 171.12109375 C-176.86541489 164.02797353 -176.86541489 164.02797353 -175.54296875 160.30859375 C-169.93255461 154.17220328 -161.1582308 154.00481575 -153.3828125 153.47265625 C-151.76754579 153.35330131 -150.15231241 153.23349478 -148.53710938 153.11328125 C-146.01892554 152.92886325 -143.50066666 152.74748303 -140.98168945 152.57421875 C-119.9690842 151.45695501 -119.9690842 151.45695501 -102.8671875 140.3125 C-100.07495654 135.69172841 -100.75302948 130.28562092 -101.54296875 125.12109375 C-105.13105681 116.29387712 -116.01855502 106.38330061 -124.54296875 102.12109375 C-124.54296875 101.46109375 -124.54296875 100.80109375 -124.54296875 100.12109375 C-126.02796875 99.62609375 -126.02796875 99.62609375 -127.54296875 99.12109375 C-134.39743242 90.88216415 -138.13520924 83.0477469 -137.35546875 72.30859375 C-136.55435788 67.13778722 -134.86867626 64.28897894 -130.91796875 60.80859375 C-125.65911753 58.17916814 -121.54227445 58.1801351 -115.953125 59.93359375 C-106.69175297 63.94453382 -103.48235852 70.53776477 -99.89282227 79.52270508 C-98.39728562 83.3722012 -96.9661038 87.24436686 -95.54296875 91.12109375 C-87.93660592 112.26378994 -87.93660592 112.26378994 -71.79296875 127.24609375 C-62.64511286 130.86900698 -50.37531297 130.87015398 -41 128.05859375 C-36.47365344 125.94450829 -36.47365344 125.94450829 -33.54296875 122.12109375 C-32.88296875 122.12109375 -32.22296875 122.12109375 -31.54296875 122.12109375 C-30.03584541 119.19470628 -28.71665789 116.23411372 -27.48046875 113.18359375 C-27.13886719 112.34957031 -26.79726562 111.51554687 -26.4453125 110.65625 C-20.24945186 93.248832 -25.78441748 72.88943864 -30.578125 55.8515625 C-32.86332171 47.01608532 -33.93060577 38.76264005 -33.98046875 29.62109375 C-34.01333984 28.55761719 -34.04621094 27.49414062 -34.08007812 26.3984375 C-34.14037202 17.46397813 -31.8146156 11.06384765 -26.10546875 4.18359375 C-18.67730075 -1.79517561 -9.08884682 -3.1413065 0 0 Z " fill="currentColor" transform="translate(271.54296875,69.87890625)"/>
<path d="M0 0 C4.0477655 3.68158622 7.47363315 8.40356066 9.59765625 13.453125 C9.52323137 17.54649334 9.0661444 19.8032866 6.66015625 23.140625 C-4.6299308 31.66579277 -20.16659817 31.91061994 -33.71728516 30.15283203 C-43.64775677 28.42627163 -51.0671447 25.34411881 -57.83984375 17.703125 C-61.6633234 12.19731431 -61.06815085 5.95584106 -60.40234375 -0.546875 C-59.0811076 -3.45887948 -57.92625191 -4.42449768 -55.40234375 -6.546875 C-54.83128906 -7.05347656 -54.26023437 -7.56007812 -53.671875 -8.08203125 C-37.60708133 -18.45087398 -13.91488098 -10.39504111 0 0 Z " fill="currentColor" transform="translate(60.40234375,201.546875)"/>
<path d="M0 0 C0 0.66 0 1.32 0 2 C0.59683594 2.10183594 1.19367188 2.20367187 1.80859375 2.30859375 C6.24359253 3.70787144 8.86511466 7.95805016 11.05078125 11.890625 C13.6129163 17.86489252 14.14654452 24.1720207 12.2734375 30.42578125 C10.25153101 35.31616483 7.68940033 39.21351018 4 43 C3.34 43 2.68 43 2 43 C2 43.66 2 44.32 2 45 C-4.67437159 48.81392662 -11.45802779 48.78380774 -19 48 C-26.81896475 45.73469246 -32.03911347 39.93155142 -36 33 C-38.04158087 25.17393998 -37.76329464 16.39234014 -34.03515625 9.1171875 C-30.54360958 3.68589268 -25.67129946 0.22376649 -19.5625 -1.8125 C-12.59640488 -2.32221428 -6.73368024 -1.9588888 0 0 Z " fill="currentColor" transform="translate(370,442)"/>
<path d="M0 0 C2.31 0.33 4.62 0.66 7 1 C7 1.66 7 2.32 7 3 C-6.81485311 6.62356803 -21.36758793 6.11175086 -35 2 C-31.24118909 0.7705211 -27.75312113 0.9763193 -23.828125 1.12109375 C-23.1457074 1.14470474 -22.46328979 1.16831573 -21.76019287 1.19264221 C-19.58989942 1.2689496 -17.41999286 1.35311406 -15.25 1.4375 C-13.77475824 1.49075373 -12.29949784 1.54349389 -10.82421875 1.59570312 C-7.21591088 1.7245195 -3.6079079 1.86038194 0 2 C0 1.34 0 0.68 0 0 Z " fill="currentColor" transform="translate(51,227)"/>
<path d="M0 0 C0.33 1.32 0.66 2.64 1 4 C0.071875 4.37125 -0.85625 4.7425 -1.8125 5.125 C-5.5260303 7.30942959 -6.42687504 9.06718759 -8 13 C-8.66 13 -9.32 13 -10 13 C-10.33 13.66 -10.66 14.32 -11 15 C-11.99 15.33 -12.98 15.66 -14 16 C-15.20882096 18.00016466 -15.20882096 18.00016466 -16 20 C-16.99 19.67 -17.98 19.34 -19 19 C-17.89847594 17.56047403 -16.7936696 16.12345929 -15.6875 14.6875 C-14.76517578 13.48673828 -14.76517578 13.48673828 -13.82421875 12.26171875 C-12.29206904 10.36211558 -10.844091 8.59614599 -9 7 C-8.34 7 -7.68 7 -7 7 C-7 6.34 -7 5.68 -7 5 C-5.46875 3.7109375 -5.46875 3.7109375 -3.5 2.375 C-2.8503125 1.92898438 -2.200625 1.48296875 -1.53125 1.0234375 C-1.0259375 0.68570312 -0.520625 0.34796875 0 0 Z " fill="currentColor" transform="translate(106,419)"/>
<path d="M0 0 C0 0.99 0 1.98 0 3 C0.66 3.33 1.32 3.66 2 4 C1.21625 4.185625 0.4325 4.37125 -0.375 4.5625 C-3.39376342 5.83961627 -3.39376342 5.83961627 -4.3125 9.625 C-4.539375 10.73875 -4.76625 11.8525 -5 13 C-5.639375 13.12375 -6.27875 13.2475 -6.9375 13.375 C-7.618125 13.58125 -8.29875 13.7875 -9 14 C-9.33 14.66 -9.66 15.32 -10 16 C-10.66 16 -11.32 16 -12 16 C-12.33 16.66 -12.66 17.32 -13 18 C-12.14947415 11.19579318 -7.89552563 0 0 0 Z " fill="currentColor" transform="translate(251,72)"/>
<path d="M0 0 C0.66 0.33 1.32 0.66 2 1 C1.71125 1.70125 1.4225 2.4025 1.125 3.125 C0.75375 4.07375 0.3825 5.0225 0 6 C-0.350625 6.845625 -0.70125 7.69125 -1.0625 8.5625 C-2.44699004 13.63896349 -2.67792755 18.76208495 -3 24 C-5.99128624 21.00871376 -5.72811394 18.00310834 -6.03515625 13.8984375 C-5.97660055 9.07084525 -4.77066376 4.89100013 -1.390625 1.28125 C-0.93171875 0.8584375 -0.4728125 0.435625 0 0 Z " fill="currentColor" transform="translate(140,131)"/>
<path d="M0 0 C0 0.66 0 1.32 0 2 C-2.64738916 3.4606285 -3.89448334 4 -7 4 C-7.103125 4.53625 -7.20625 5.0725 -7.3125 5.625 C-8.18092697 8.62502044 -9.55620296 11.2379535 -11 14 C-10.34 14 -9.68 14 -9 14 C-8.67 14.99 -8.34 15.98 -8 17 C-8.66 17.33 -9.32 17.66 -10 18 C-10 17.34 -10 16.68 -10 16 C-10.66 16 -11.32 16 -12 16 C-13.32244614 8.90687978 -13.32244614 8.90687978 -12 5.1875 C-8.71103668 1.59019637 -4.8525947 0 0 0 Z " fill="currentColor" transform="translate(108,225)"/>
<path d="M0 0 C3.796875 0.796875 3.796875 0.796875 5.625 2.625 C9.21915518 8.83308621 10.00580471 15.93773682 9 23 C7.48046875 25.33203125 7.48046875 25.33203125 6 27 C5.34 26.67 4.68 26.34 4 26 C4.66 25.01 5.32 24.02 6 23 C7.22194448 14.6226306 6.09144514 8.68870138 1.3125 1.73046875 C0.879375 1.15941406 0.44625 0.58835938 0 0 Z " fill="currentColor" transform="translate(164,185)"/>
<path d="M0 0 C0.66 0.33 1.32 0.66 2 1 C2 1.99 2 2.98 2 4 C1.34 4 0.68 4 0 4 C0.33 5.32 0.66 6.64 1 8 C0.01 8.33 -0.98 8.66 -2 9 C-2.99 8.34 -3.98 7.68 -5 7 C-5.33 8.65 -5.66 10.3 -6 12 C-6.99 12.33 -7.98 12.66 -9 13 C-8.38297446 7.60102654 -5.92102734 4.54749424 -1.75 1.1875 C-1.1725 0.795625 -0.595 0.40375 0 0 Z " fill="currentColor" transform="translate(9,192)"/>
<path d="M0 0 C3.61182527 3.61182527 3.50276673 4.90876824 3.8125 9.875 C3.90144531 11.08929688 3.99039063 12.30359375 4.08203125 13.5546875 C4.00182563 16.92332334 3.47442225 19.00561351 2 22 C1.34 22 0.68 22 0 22 C0 14.74 0 7.48 0 0 Z " fill="currentColor" transform="translate(154,348)"/>
<path d="M0 0 C3 2 3 2 3.68139648 3.71777344 C4.09382514 6.67208995 4.11121781 9.53208267 4.09765625 12.515625 C4.09282227 14.39121094 4.09282227 14.39121094 4.08789062 16.3046875 C4.07951172 17.60664063 4.07113281 18.90859375 4.0625 20.25 C4.05798828 21.56742188 4.05347656 22.88484375 4.04882812 24.2421875 C4.03704316 27.49483741 4.02059011 30.74739584 4 34 C3.67 34 3.34 34 3 34 C2.95101562 32.71867187 2.90203125 31.43734375 2.8515625 30.1171875 C2.42531454 19.95417612 1.71210369 10.03990899 0 0 Z " fill="currentColor" transform="translate(245,138)"/>
<path d="M0 0 C2.62538284 0.14053872 5.25017427 0.28718947 7.875 0.4375 C8.99455078 0.49647461 8.99455078 0.49647461 10.13671875 0.55664062 C15.7734375 0.88671875 15.7734375 0.88671875 18 2 C20.37123246 2.23029956 22.74741943 2.41119942 25.125 2.5625 C26.40632813 2.64628906 27.68765625 2.73007813 29.0078125 2.81640625 C30.48894531 2.90728516 30.48894531 2.90728516 32 3 C32 3.33 32 3.66 32 4 C20.84113421 4.3181514 10.77895966 4.25110453 0 1 C0 0.67 0 0.34 0 0 Z " fill="currentColor" transform="translate(16,228)"/>
<path d="M0 0 C4.94911119 0.67313041 9.84450136 1.48693651 14.75 2.4375 C16.04421875 2.68371094 17.3384375 2.92992187 18.671875 3.18359375 C22 4 22 4 25 6 C18.4 5.34 11.8 4.68 5 4 C5 3.34 5 2.68 5 2 C3.35 2 1.7 2 0 2 C0 1.34 0 0.68 0 0 Z " fill="currentColor" transform="translate(401,339)"/>
<path d="M0 0 C0.66 0.33 1.32 0.66 2 1 C1.01 2.485 1.01 2.485 0 4 C-0.66 4 -1.32 4 -2 4 C-2.309375 4.61875 -2.61875 5.2375 -2.9375 5.875 C-3.625 7.25 -4.3125 8.625 -5 10 C-5.66 10 -6.32 10 -7 10 C-6.67 13.3 -6.34 16.6 -6 20 C-6.66 19.67 -7.32 19.34 -8 19 C-8.86096102 8.2475535 -8.86096102 8.2475535 -5.6875 4.4375 C-3 2 -3 2 0 0 Z " fill="currentColor" transform="translate(48,321)"/>
<path d="M0 0 C3.266193 1.32400762 5.24096311 2.74772499 8 5 C6.68 5.33 5.36 5.66 4 6 C4 5.34 4 4.68 4 4 C0.07901312 3.18035868 -3.85225152 2.53753765 -7.8125 1.9375 C-8.97394531 1.76089844 -10.13539063 1.58429688 -11.33203125 1.40234375 C-12.21246094 1.26957031 -13.09289062 1.13679688 -14 1 C-14 1.66 -14 2.32 -14 3 C-15.32 2.67 -16.64 2.34 -18 2 C-12.73663785 -1.5089081 -6.11389086 -0.65324767 0 0 Z " fill="currentColor" transform="translate(269,69)"/>
<path d="M0 0 C-1.12327771 1.45966034 -2.24868294 2.91768364 -3.375 4.375 C-4.00148437 5.18710937 -4.62796875 5.99921875 -5.2734375 6.8359375 C-7 9 -7 9 -9 11 C-9 10.34 -9 9.68 -9 9 C-9.66 8.67 -10.32 8.34 -11 8 C-10.34 7.01 -9.68 6.02 -9 5 C-8.34 5 -7.68 5 -7 5 C-7.33 3.68 -7.66 2.36 -8 1 C-3.375 -1.125 -3.375 -1.125 0 0 Z " fill="currentColor" transform="translate(177,380)"/>
<path d="M0 0 C0 0.33 0 0.66 0 1 C-1.02480469 1.19335938 -2.04960938 1.38671875 -3.10546875 1.5859375 C-4.46619601 1.84869863 -5.82687033 2.11173398 -7.1875 2.375 C-8.19780273 2.56449219 -8.19780273 2.56449219 -9.22851562 2.7578125 C-12.20989084 3.33954425 -14.93715945 3.97328604 -17.73828125 5.1640625 C-20.31159402 6.11516601 -21.46674119 5.938244 -24 5 C-15.7698902 0.91412989 -9.18746945 -0.73304278 0 0 Z " fill="currentColor" transform="translate(121,329)"/>
<path d="M0 0 C6.93 0 13.86 0 21 0 C20.01 1.485 20.01 1.485 19 3 C16.58239124 2.88573491 14.16652782 2.75900339 11.75 2.625 C11.06808594 2.5940625 10.38617188 2.563125 9.68359375 2.53125 C5.75089375 2.30216068 3.61105794 1.80552897 0 0 Z " fill="currentColor" transform="translate(206,200)"/>
<path d="M0 0 C1.74216797 0.02707031 1.74216797 0.02707031 3.51953125 0.0546875 C4.39996094 0.07789063 5.28039062 0.10109375 6.1875 0.125 C6.1875 0.785 6.1875 1.445 6.1875 2.125 C5.04861328 2.19847656 5.04861328 2.19847656 3.88671875 2.2734375 C2.89285156 2.34820312 1.89898437 2.42296875 0.875 2.5 C-0.60419922 2.60441406 -0.60419922 2.60441406 -2.11328125 2.7109375 C-5.02778433 2.96365472 -5.02778433 2.96365472 -7.8125 5.125 C-7.8125 4.465 -7.8125 3.805 -7.8125 3.125 C-9.1325 2.795 -10.4525 2.465 -11.8125 2.125 C-7.73526266 0.17468308 -4.49557578 -0.09081971 0 0 Z " fill="currentColor" transform="translate(389.8125,182.875)"/>
<path d="M0 0 C3.04386724 -0.08226668 5.07175348 0.02391783 8 1 C8 1.66 8 2.32 8 3 C9.65 2.34 11.3 1.68 13 1 C13 1.66 13 2.32 13 3 C13.66 3.33 14.32 3.66 15 4 C14 5 14 5 11.85546875 5.01953125 C4.5789396 4.45488111 4.5789396 4.45488111 1.375 1.9375 C0.92125 1.298125 0.4675 0.65875 0 0 Z " fill="currentColor" transform="translate(264,465)"/>
<path d="M0 0 C0.33 0 0.66 0 1 0 C1 1.98 1 3.96 1 6 C1.66 6 2.32 6 3 6 C3.99 10.62 4.98 15.24 6 20 C2.82694115 18.41347057 2.34856724 16.25903751 1 13 C-1.44781784 2.89563567 -1.44781784 2.89563567 0 0 Z " fill="currentColor" transform="translate(258,445)"/>
<path d="M0 0 C0.66 1.32 1.32 2.64 2 4 C0.68 5.32 -0.64 6.64 -2 8 C-2.33 7.34 -2.66 6.68 -3 6 C-2.06553465 3.96855359 -1.06775224 1.96466413 0 0 Z M-4 10 C-5.25 11.5625 -5.25 11.5625 -7 13 C-9.1875 12.6875 -9.1875 12.6875 -11 12 C-11.33 12.99 -11.66 13.98 -12 15 C-13.32 14.67 -14.64 14.34 -16 14 C-15.01 14 -14.02 14 -13 14 C-12.67 13.01 -12.34 12.02 -12 11 C-6.59770115 8.70114943 -6.59770115 8.70114943 -4 10 Z " fill="currentColor" transform="translate(244,186)"/>
<path d="M0 0 C2.97 0 5.94 0 9 0 C5.66368744 1.66815628 2.51227447 2.97137497 -1 4.1875 C-2.03125 4.55230469 -3.0625 4.91710937 -4.125 5.29296875 C-6.97307959 5.99337963 -8.30185728 6.01828944 -11 5 C-7.14243493 2.84694043 -4.44870215 1.60746746 0 2 C0 1.34 0 0.68 0 0 Z " fill="currentColor" transform="translate(384,227)"/>
<path d="M0 0 C0.66 0 1.32 0 2 0 C2.37634203 6.80203375 1.77471079 11.75690073 -1 18 C-1.33 18 -1.66 18 -2 18 C-2 15.69 -2 13.38 -2 11 C-1.34 11 -0.68 11 0 11 C0 7.37 0 3.74 0 0 Z " fill="currentColor" transform="translate(381,460)"/>
<path d="M0 0 C0.99 0.33 1.98 0.66 3 1 C3 1.66 3 2.32 3 3 C3.763125 3.268125 4.52625 3.53625 5.3125 3.8125 C7.87380884 4.94424112 9.19692938 5.91223401 11 8 C9.296875 8.71484375 9.296875 8.71484375 7 9 C4.640625 7.56640625 4.640625 7.56640625 2.25 5.5625 C1.05117188 4.57443359 1.05117188 4.57443359 -0.171875 3.56640625 C-0.77515625 3.04949219 -1.3784375 2.53257812 -2 2 C-1.34 1.34 -0.68 0.68 0 0 Z " fill="currentColor" transform="translate(395,376)"/>
<path d="M0 0 C1.2065625 0.0309375 1.2065625 0.0309375 2.4375 0.0625 C2.1075 1.3825 1.7775 2.7025 1.4375 4.0625 C0.7775 4.0625 0.1175 4.0625 -0.5625 4.0625 C-0.8925 5.0525 -1.2225 6.0425 -1.5625 7.0625 C-2.5525 7.0625 -3.5425 7.0625 -4.5625 7.0625 C-3.5234375 0.0859375 -3.5234375 0.0859375 0 0 Z " fill="currentColor" transform="translate(292.5625,458.9375)"/>
<path d="M0 0 C-2.61514317 2.12038635 -5.19637616 4.13091744 -8 6 C-8 5.01 -8 4.02 -8 3 C-8.66 2.67 -9.32 2.34 -10 2 C-8 -1 -8 -1 -6.125 -1.8125 C-3.50147776 -2.04398726 -2.21976911 -1.34771696 0 0 Z " fill="currentColor" transform="translate(362,238)"/>
<path d="M0 0 C3.63955889 3.3086899 4.92967288 5.67785014 5.1953125 10.671875 C5.18211335 12.03138796 5.15840107 13.39083332 5.125 14.75 C5.11597656 15.44738281 5.10695313 16.14476562 5.09765625 16.86328125 C5.07419888 18.57566958 5.03833104 20.28788004 5 22 C4.67 22 4.34 22 4 22 C3.87882812 20.95199219 3.75765625 19.90398437 3.6328125 18.82421875 C3.46396055 17.44526114 3.29466659 16.06635761 3.125 14.6875 C3.04636719 13.99720703 2.96773438 13.30691406 2.88671875 12.59570312 C2.44056153 9.04360529 2.02019807 7.0302971 0 4 C0 2.68 0 1.36 0 0 Z " fill="currentColor" transform="translate(410,192)"/>
<path d="M0 0 C2.97 0.495 2.97 0.495 6 1 C4.70700306 3.88437779 3.34058637 5.87219421 1 8 C0.34 7.67 -0.32 7.34 -1 7 C-0.67 6.34 -0.34 5.68 0 5 C-0.66 4.67 -1.32 4.34 -2 4 C-1.34 3.67 -0.68 3.34 0 3 C0 2.01 0 1.02 0 0 Z " fill="currentColor" transform="translate(408,213)"/>
<path d="M0 0 C0.33 1.32 0.66 2.64 1 4 C0.01 4 -0.98 4 -2 4 C-2.33 5.65 -2.66 7.3 -3 9 C-3.66 9 -4.32 9 -5 9 C-5 9.66 -5 10.32 -5 11 C-6.65 11.66 -8.3 12.32 -10 13 C-9.67 12.01 -9.34 11.02 -9 10 C-8.34 10 -7.68 10 -7 10 C-6.773125 9.46375 -6.54625 8.9275 -6.3125 8.375 C-4.56617944 5.21499137 -2.3597151 2.7323017 0 0 Z " fill="currentColor" transform="translate(368,193)"/>
<path d="M0 0 C0.99 0.33 1.98 0.66 3 1 C3 1.99 3 2.98 3 4 C1.824375 4.12375 1.824375 4.12375 0.625 4.25 C-2.14749104 4.72806339 -2.14749104 4.72806339 -3.3125 7.0625 C-3.539375 7.701875 -3.76625 8.34125 -4 9 C-4.33 9 -4.66 9 -5 9 C-5.3125 6.75 -5.3125 6.75 -5 4 C-2.6875 1.625 -2.6875 1.625 0 0 Z " fill="currentColor" transform="translate(374,188)"/>
<path d="M0 0 C1.60938465 2.41407698 2.65490738 4.34044437 3.6875 7 C3.95949219 7.680625 4.23148438 8.36125 4.51171875 9.0625 C5 11 5 11 4 14 C2.015625 12.85546875 2.015625 12.85546875 0 11 C-0.390625 8.30078125 -0.390625 8.30078125 -0.25 5.3125 C-0.21390625 4.31863281 -0.1778125 3.32476562 -0.140625 2.30078125 C-0.09421875 1.54152344 -0.0478125 0.78226563 0 0 Z " fill="currentColor" transform="translate(171,150)"/>
<path d="M0 0 C0 0.99 0 1.98 0 3 C-0.763125 3.2475 -1.52625 3.495 -2.3125 3.75 C-5.09745632 4.77143334 -5.09745632 4.77143334 -6.4375 7.0625 C-8 9 -8 9 -11.1875 9.75 C-12.5796875 9.87375 -12.5796875 9.87375 -14 10 C-4.76923077 0 -4.76923077 0 0 0 Z " fill="currentColor" transform="translate(128,404)"/>
<path d="M0 0 C3.33537489 1.11179163 4.63707344 2.47411298 7 5 C6.67 5.66 6.34 6.32 6 7 C3.4375 7.625 3.4375 7.625 1 8 C0.34 5.69 -0.32 3.38 -1 1 C-0.67 0.67 -0.34 0.34 0 0 Z " fill="currentColor" transform="translate(152,340)"/>
<path d="M0 0 C0.33 0 0.66 0 1 0 C1.05422947 1.4370809 1.09289723 2.87475462 1.125 4.3125 C1.14820313 5.11300781 1.17140625 5.91351563 1.1953125 6.73828125 C1 9 1 9 -1 12 C-0.69159401 14.15274948 -0.69159401 14.15274948 0 16 C-0.66 15.34 -1.32 14.68 -2 14 C-2.99 14 -3.98 14 -5 14 C-4.72285156 13.40832031 -4.44570312 12.81664062 -4.16015625 12.20703125 C-1.44225847 6.30953569 -1.44225847 6.30953569 0 0 Z " fill="currentColor" transform="translate(135,284)"/>
<path d="M0 0 C0 3.61537605 -0.89229241 5.11165997 -3 8 C-3.99 8 -4.98 8 -6 8 C-6 8.66 -6 9.32 -6 10 C-7.32 9.67 -8.64 9.34 -10 9 C-6.7 6.03 -3.4 3.06 0 0 Z " fill="currentColor" transform="translate(141,391)"/>
<path d="M0 0 C5.41342681 1.14514798 7.9342948 2.34012809 11 7 C7.91598626 7 6.96336044 6.65790902 4.375 5.1875 C3.45847656 4.68283203 3.45847656 4.68283203 2.5234375 4.16796875 C1 3 1 3 0 0 Z " fill="currentColor" transform="translate(83,481)"/>
<path d="M0 0 C0.66 0.33 1.32 0.66 2 1 C2 4.96 2 8.92 2 13 C1.34 12.67 0.68 12.34 0 12 C-0.44921875 9.78515625 -0.44921875 9.78515625 -0.6875 7.0625 C-0.81705078 5.71865234 -0.81705078 5.71865234 -0.94921875 4.34765625 C-1 2 -1 2 0 0 Z " fill="currentColor" transform="translate(253,404)"/>
<path d="M0 0 C0.33 0.66 0.66 1.32 1 2 C2.64363134 2.72159424 4.31050386 3.39351421 6 4 C6 4.66 6 5.32 6 6 C3.15449988 5.33989524 0.47674001 4.48275034 -2.25 3.4375 C-2.95640625 3.16808594 -3.6628125 2.89867187 -4.390625 2.62109375 C-4.92171875 2.41613281 -5.4528125 2.21117187 -6 2 C-6 1.67 -6 1.34 -6 1 C-4.02 0.67 -2.04 0.34 0 0 Z " fill="currentColor" transform="translate(363,355)"/>
<path d="M0 0 C3.67024761 1.22341587 4.3606842 2.83514059 6.1484375 6.14453125 C7.18118719 8.39478859 7.70252005 10.54579041 8 13 C7.67 12.34 7.34 11.68 7 11 C6.34 11 5.68 11 5 11 C3 8 3 8 3 4 C2.34 4 1.68 4 1 4 C0.67 2.68 0.34 1.36 0 0 Z " fill="currentColor" transform="translate(439,352)"/>
<path d="M0 0 C1.32 0.66 2.64 1.32 4 2 C3.37755401 3.27208622 2.75193233 4.54261882 2.125 5.8125 C1.77695312 6.52019531 1.42890625 7.22789062 1.0703125 7.95703125 C0 10 0 10 -2 13 C-2.33 10.69 -2.66 8.38 -3 6 C-2.01 6 -1.02 6 0 6 C0 4.02 0 2.04 0 0 Z " fill="currentColor" transform="translate(339,255)"/>
<path d="M0 0 C1.98 0 3.96 0 6 0 C6.66 1.65 7.32 3.3 8 5 C3.72290301 5 2.44069624 4.29379749 -1 2 C-0.67 1.34 -0.34 0.68 0 0 Z " fill="currentColor" transform="translate(108,249)"/>
<path d="M0 0 C1.32 0.33 2.64 0.66 4 1 C3.1875 3.4375 3.1875 3.4375 2 6 C1.01 6.33 0.02 6.66 -1 7 C-1 6.34 -1 5.68 -1 5 C-1.66 4.67 -2.32 4.34 -3 4 C-2.01 2.68 -1.02 1.36 0 0 Z " fill="currentColor" transform="translate(342,249)"/>
<path d="M0 0 C1.32 0.33 2.64 0.66 4 1 C4 1.66 4 2.32 4 3 C4.66 3 5.32 3 6 3 C6.12375 3.804375 6.2475 4.60875 6.375 5.4375 C6.684375 6.7059375 6.684375 6.7059375 7 8 C7.66 8.33 8.32 8.66 9 9 C8.01 9 7.02 9 6 9 C3.2650899 6.06973918 1.27424305 3.82272915 0 0 Z " fill="currentColor" transform="translate(0,214)"/>
<path d="M0 0 C0.66 0.33 1.32 0.66 2 1 C2 1.33 2 1.66 2 2 C2.66 2 3.32 2 4 2 C4.33 3.65 4.66 5.3 5 7 C-1.75 5.375 -1.75 5.375 -4 2 C-2.125 0.9375 -2.125 0.9375 0 0 Z " fill="currentColor" transform="translate(346,482)"/>
<path d="M0 0 C0.99 0.495 0.99 0.495 2 1 C1.67 1.99 1.34 2.98 1 4 C1.99 3.67 2.98 3.34 4 3 C4.33 4.32 4.66 5.64 5 7 C4.01 7 3.02 7 2 7 C2.33 8.32 2.66 9.64 3 11 C2.34 11 1.68 11 1 11 C-0.17571451 7.32589215 -0.07366746 3.83070817 0 0 Z " fill="currentColor" transform="translate(41,331)"/>
<path d="M0 0 C0.33 0.66 0.66 1.32 1 2 C-0.78853913 6.76943768 -2.64285725 10.35983832 -7.3125 12.5625 C-8.199375 12.706875 -9.08625 12.85125 -10 13 C-8.71937515 11.2925002 -7.38232443 9.62626404 -6 8 C-5.34 8 -4.68 8 -4 8 C-3.71125 7.4225 -3.4225 6.845 -3.125 6.25 C-1.5625 3.125 -1.5625 3.125 0 0 Z " fill="currentColor" transform="translate(244,184)"/>
<path d="M0 0 C5.66104589 0.49658297 9.87674471 1.54510684 15 4 C15 4.33 15 4.66 15 5 C9.76119922 4.44854729 5.02649303 3.57077907 0 2 C0 1.34 0 0.68 0 0 Z " fill="currentColor" transform="translate(35,191)"/>
<path d="M0 0 C3.8718417 1.25573244 6.02838671 2.36808079 8 6 C8.1875 8.75 8.1875 8.75 8 11 C5.0843836 7.45960866 2.49872182 3.8373228 0 0 Z " fill="currentColor" transform="translate(127,264)"/>
<path d="M0 0 C5.28 0.99 10.56 1.98 16 3 C16 3.33 16 3.66 16 4 C12.04 4 8.08 4 4 4 C4 3.34 4 2.68 4 2 C2.68 2 1.36 2 0 2 C0 1.34 0 0.68 0 0 Z " fill="currentColor" transform="translate(296,221)"/>
<path d="M0 0 C1.8125 1.5 1.8125 1.5 3 3 C2.01 3.33 1.02 3.66 0 4 C-0.66 3.67 -1.32 3.34 -2 3 C-3.53668865 2.77532169 -5.07968054 2.59203195 -6.625 2.4375 C-7.44226563 2.35371094 -8.25953125 2.26992188 -9.1015625 2.18359375 C-9.72804687 2.12300781 -10.35453125 2.06242187 -11 2 C-11 1.67 -11 1.34 -11 1 C-3.55769231 -0.38461538 -3.55769231 -0.38461538 0 0 Z " fill="currentColor" transform="translate(225,365)"/>
<path d="M0 0 C3.01217112 0.64449607 5.51655836 1.65022182 8.25 3.0625 C8.95640625 3.42472656 9.6628125 3.78695313 10.390625 4.16015625 C10.92171875 4.43730469 11.4528125 4.71445312 12 5 C11.67 5.66 11.34 6.32 11 7 C10.01 6.67 9.02 6.34 8 6 C8 5.34 8 4.68 8 4 C6.35 4 4.7 4 3 4 C2.67 3.01 2.34 2.02 2 1 C1.34 0.67 0.68 0.34 0 0 Z " fill="currentColor" transform="translate(427,345)"/>
<path d="M0 0 C0 0.66 0 1.32 0 2 C-1.32 2 -2.64 2 -4 2 C-4 2.66 -4 3.32 -4 4 C-7.63 4 -11.26 4 -15 4 C-15 3.67 -15 3.34 -15 3 C-12.87562952 2.49733206 -10.75048274 1.9979439 -8.625 1.5 C-7.44164063 1.2215625 -6.25828125 0.943125 -5.0390625 0.65625 C-2 0 -2 0 0 0 Z " fill="currentColor" transform="translate(116,309)"/>
<path d="M0 0 C1.65 0.33 3.3 0.66 5 1 C4.67 2.32 4.34 3.64 4 5 C2.68 5.33 1.36 5.66 0 6 C0 5.34 0 4.68 0 4 C-0.66 4 -1.32 4 -2 4 C-1.34 2.68 -0.68 1.36 0 0 Z " fill="currentColor" transform="translate(2,210)"/>
<path d="M0 0 C0.99 0.33 1.98 0.66 3 1 C1.35 2.98 -0.3 4.96 -2 7 C-2.99 6.67 -3.98 6.34 -5 6 C-5 5.34 -5 4.68 -5 4 C-4.01 4 -3.02 4 -2 4 C-2 3.34 -2 2.68 -2 2 C-1.34 2 -0.68 2 0 2 C0 1.34 0 0.68 0 0 Z " fill="currentColor" transform="translate(129,475)"/>
<path d="M0 0 C0.66 0 1.32 0 2 0 C1.38461538 6.52307692 1.38461538 6.52307692 -0.5625 8.9375 C-1.036875 9.288125 -1.51125 9.63875 -2 10 C-2.33 8.02 -2.66 6.04 -3 4 C-2.34 4 -1.68 4 -1 4 C-0.67 2.68 -0.34 1.36 0 0 Z " fill="currentColor" transform="translate(68,215)"/>
<path d="M0 0 C2.64465038 3.1254959 3.84414715 6.08788267 5 10 C2.69 9.01 0.38 8.02 -2 7 C-2 6.34 -2 5.68 -2 5 C-1.01 5 -0.02 5 1 5 C0.67 3.35 0.34 1.7 0 0 Z " fill="currentColor" transform="translate(179,172)"/>
<path d="M0 0 C0.66 0 1.32 0 2 0 C4.32590854 3.63423209 4.16265833 6.77088331 4 11 C3.34 11 2.68 11 2 11 C1.34 7.37 0.68 3.74 0 0 Z " fill="currentColor" transform="translate(241,123)"/>
<path d="M0 0 C0.99 0 1.98 0 3 0 C1.52307692 4.67692308 1.52307692 4.67692308 -1.125 6.3125 C-2.053125 6.6528125 -2.053125 6.6528125 -3 7 C-2.38722388 4.03824877 -1.74627478 2.61941217 0 0 Z " fill="currentColor" transform="translate(145,386)"/>
<path d="M0 0 C4.455 2.97 4.455 2.97 9 6 C8.01 6.66 7.02 7.32 6 8 C6 7.34 6 6.68 6 6 C5.071875 5.9071875 5.071875 5.9071875 4.125 5.8125 C3.073125 5.4103125 3.073125 5.4103125 2 5 C1.34 3.35 0.68 1.7 0 0 Z " fill="currentColor" transform="translate(349,321)"/>
<path d="M0 0 C-2.93373731 1.95582488 -5.78216298 3.56224304 -9 5 C-9.66 4.67 -10.32 4.34 -11 4 C-10.67 3.01 -10.34 2.02 -10 1 C-6.52674819 -0.1577506 -3.63932552 -0.06866652 0 0 Z " fill="currentColor" transform="translate(304,351)"/>
<path d="M0 0 C-2.3129482 2.3129482 -3.47904875 2.49580975 -6.625 3.125 C-7.44226563 3.29257812 -8.25953125 3.46015625 -9.1015625 3.6328125 C-10.04128906 3.81457031 -10.04128906 3.81457031 -11 4 C-7.95841042 -0.56238437 -5.1474794 -0.11438843 0 0 Z " fill="currentColor" transform="translate(78,343)"/>
<path d="M0 0 C0.66 0 1.32 0 2 0 C2 0.99 2 1.98 2 3 C2.66 3 3.32 3 4 3 C3.67 4.65 3.34 6.3 3 8 C2.01 7.34 1.02 6.68 0 6 C-0.1875 2.875 -0.1875 2.875 0 0 Z " fill="currentColor" transform="translate(99,238)"/>
<path d="M0 0 C2.66753731 0.36793618 3.81998328 0.81998328 5.75 2.75 C7.21079991 5.37943983 7.24687966 7.0374441 7 10 C4.3513141 6.80331012 2.06007659 3.60513403 0 0 Z " fill="currentColor" transform="translate(164,185)"/>
<path d="M0 0 C3.53647504 1.67517239 4.7911563 2.49280817 6.3125 6.1875 C6.539375 7.115625 6.76625 8.04375 7 9 C6.34 9 5.68 9 5 9 C3.7109375 7.5390625 3.7109375 7.5390625 2.375 5.625 C1.92898438 4.99851562 1.48296875 4.37203125 1.0234375 3.7265625 C0 2 0 2 0 0 Z " fill="currentColor" transform="translate(335,475)"/>
<path d="M0 0 C3.94727588 -0.17942163 6.5980513 -0.09350689 10 2 C9.67 2.99 9.34 3.98 9 5 C4.545 3.02 4.545 3.02 0 1 C0 0.67 0 0.34 0 0 Z " fill="currentColor" transform="translate(227,369)"/>
<path d="M0 0 C2.475 0.495 2.475 0.495 5 1 C5.33 2.32 5.66 3.64 6 5 C4.68 5.33 3.36 5.66 2 6 C1.67 5.01 1.34 4.02 1 3 C1.33 2.34 1.66 1.68 2 1 C1.34 0.67 0.68 0.34 0 0 Z " fill="currentColor" transform="translate(424,345)"/>
<path d="M0 0 C1.98 0.495 1.98 0.495 4 1 C3.34 2.98 2.68 4.96 2 7 C0.4375 5.1875 0.4375 5.1875 -1 3 C-0.67 2.01 -0.34 1.02 0 0 Z " fill="currentColor" transform="translate(138,459)"/>
<path d="M0 0 C0.33 1.32 0.66 2.64 1 4 C-3.625 6.125 -3.625 6.125 -7 5 C-4.69 3.35 -2.38 1.7 0 0 Z " fill="currentColor" transform="translate(106,419)"/>
<path d="M0 0 C0.66 0.33 1.32 0.66 2 1 C2 1.66 2 2.32 2 3 C1.34 3 0.68 3 0 3 C0.33 6.3 0.66 9.6 1 13 C0.34 12.67 -0.32 12.34 -1 12 C-1.02687279 10.18757948 -1.04633715 8.37504767 -1.0625 6.5625 C-1.07410156 5.55316406 -1.08570313 4.54382813 -1.09765625 3.50390625 C-1 1 -1 1 0 0 Z " fill="currentColor" transform="translate(41,328)"/>
<path d="M0 0 C2.66735273 2.48952921 4.55746343 4.63408134 6 8 C4.125 7.6875 4.125 7.6875 2 7 C0 4 0 4 0 0 Z " fill="currentColor" transform="translate(184,182)"/>
<path d="M0 0 C-3.20336822 2.83374881 -5.78087253 3.5205537 -10 4 C-6.58908673 0.88145073 -4.68377325 -0.53528837 0 0 Z " fill="currentColor" transform="translate(353,441)"/>
<path d="M0 0 C-1.28650706 0.69710731 -2.57940665 1.38242876 -3.875 2.0625 C-4.95394531 2.63677734 -4.95394531 2.63677734 -6.0546875 3.22265625 C-6.69664063 3.47917969 -7.33859375 3.73570312 -8 4 C-8.66 3.67 -9.32 3.34 -10 3 C-9.67 2.01 -9.34 1.02 -9 0 C-2.25 -1.125 -2.25 -1.125 0 0 Z " fill="currentColor" transform="translate(90,339)"/>
<path d="M0 0 C0.66 0.66 1.32 1.32 2 2 C1.34 3.32 0.68 4.64 0 6 C-1.32 5.67 -2.64 5.34 -4 5 C-2.68 3.35 -1.36 1.7 0 0 Z " fill="currentColor" transform="translate(80,337)"/>
<path d="M0 0 C2.23551759 3.35327639 2.17283528 3.90743657 1.625 7.6875 C1.51414062 8.49574219 1.40328125 9.30398437 1.2890625 10.13671875 C1.19367188 10.75160156 1.09828125 11.36648437 1 12 C0.67 12 0.34 12 0 12 C-0.19477739 10.37585622 -0.38059458 8.75063577 -0.5625 7.125 C-0.66691406 6.22007813 -0.77132813 5.31515625 -0.87890625 4.3828125 C-1 2 -1 2 0 0 Z " fill="currentColor" transform="translate(283,110)"/>
<path d="M0 0 C0 0.66 0 1.32 0 2 C-2.57213134 3.61949011 -3.67669159 4.04408751 -6.75 3.625 C-7.4925 3.41875 -8.235 3.2125 -9 3 C-3 0 -3 0 0 0 Z " fill="currentColor" transform="translate(108,225)"/>
<path d="M0 0 C3.375 0.3125 3.375 0.3125 7 1 C7.66 1.99 8.32 2.98 9 4 C7.68 4 6.36 4 5 4 C5 3.34 5 2.68 5 2 C3.35 1.67 1.7 1.34 0 1 C0 0.67 0 0.34 0 0 Z " fill="currentColor" transform="translate(268,71)"/>
</svg>
